<svg width="40" height="40" viewBox="0 0 56 56" fill="none" xmlns="http://www.w3.org/2000/svg">
<path d="M47.456 42.5826L39.6664 34.7943C39.3148 34.4427 38.8382 34.2474 38.3382 34.2474H37.0646C39.221 31.4899 40.5024 28.0215 40.5024 24.2484C40.5024 15.2727 33.2284 8 24.2512 8C15.274 8 8 15.2727 8 24.2484C8 33.2241 15.274 40.4968 24.2512 40.4968C28.0249 40.4968 31.4939 39.2157 34.2519 37.0597V38.333C34.2519 38.8329 34.4472 39.3094 34.7988 39.661L42.5885 47.4493C43.3229 48.1836 44.5105 48.1836 45.2371 47.4493L47.4482 45.2386C48.1826 44.5042 48.1826 43.3169 47.456 42.5826ZM24.2512 34.2474C18.7273 34.2474 14.2505 29.7791 14.2505 24.2484C14.2505 18.7255 18.7195 14.2494 24.2512 14.2494C29.775 14.2494 34.2519 18.7177 34.2519 24.2484C34.2519 29.7713 29.7828 34.2474 24.2512 34.2474Z" fill="white"/>
</svg>
